PathFileType	4	(x/y/z)	S06_PSF_T06
DataRate	CameraRate	NumFrames	NumMarkers	Units	OrigDataRate	OrigDataStartFrame	OrigNumFrames
240	240	5	51	mm	240	158	420
Frame#	Time	Sternum			R.Acromium			L.Acromium			Top.Head			R.ASIS			L.ASIS			R.PSIS			L.PSIS			R.Great.Tro			L.Great.Tro			R.Iliac.Crest			L.Iliac.Crest			V.Sacral			R.Thigh.Upper.Post			R.Thigh.Lower.Ant			R.Thigh.Lower.Post			R.Thigh.Upper.Ant			R.Knee.Lat			R.Knee.Med			R.Shank.Upper.Post			R.Shank.Lower.Ant			R.Shank.Lower.Post			R.Shank.Upper.Ant			R.Ankle.Lat			R.Ankle.Med			R.Heel.Upper			R.Heel.Med			R.Heel.Lat			R.Toe.Lat			R.Toe.Med			R.Toe.Tip			L.Thigh.Upper.Post			L.Thigh.Lower.Ant			L.Thigh.Lower.Post			L.Thigh.Upper.Ant			L.Knee.Lat			L.Knee.Med			L.Shank.Upper.Post			L.Shank.Lower.Ant			L.Shank.Lower.Post			L.Shank.Upper.Ant			L.Ankle.Lat			L.Ankle.Med			L.Heel.Upper			L.Heel.Med			L.Heel.Lat			L.Toe.Lat			L.Toe.Med			L.Toe.Tip			Cervical.Spine			Back			
		X1	Y1	Z1	X2	Y2	Z2	X3	Y3	Z3	X4	Y4	Z4	X5	Y5	Z5	X6	Y6	Z6	X7	Y7	Z7	X8	Y8	Z8	X9	Y9	Z9	X10	Y10	Z10	X11	Y11	Z11	X12	Y12	Z12	X13	Y13	Z13	X14	Y14	Z14	X15	Y15	Z15	X16	Y16	Z16	X17	Y17	Z17	X18	Y18	Z18	X19	Y19	Z19	X20	Y20	Z20	X21	Y21	Z21	X22	Y22	Z22	X23	Y23	Z23	X24	Y24	Z24	X25	Y25	Z25	X26	Y26	Z26	X27	Y27	Z27	X28	Y28	Z28	X29	Y29	Z29	X30	Y30	Z30	X31	Y31	Z31	X32	Y32	Z32	X33	Y33	Z33	X34	Y34	Z34	X35	Y35	Z35	X36	Y36	Z36	X37	Y37	Z37	X38	Y38	Z38	X39	Y39	Z39	X40	Y40	Z40	X41	Y41	Z41	X42	Y42	Z42	X43	Y43	Z43	X44	Y44	Z44	X45	Y45	Z45	X46	Y46	Z46	X47	Y47	Z47	X48	Y48	Z48	X49	Y49	Z49	X50	Y50	Z50	X51	Y51	Z51	

158	0.65417	-650.65	1271.7	348.51	-789.75	1473.7	514.3	-781.9	1479.6	162.18	-754.46	1796.3	341.39	-698.82	1038.1	470.2	-688.03	1031.2	216.57	NaN	NaN	NaN	-894.2	1059.9	293.07	-749.85	960.92	518.46	-798.67	961.69	162.35	-790.52	1110.1	500.1	-758.88	1105.5	179.6	-909.51	1022.9	335.67	-686.19	718.84	496.27	-612.35	658.11	456.14	-677.51	633.59	468.48	-619.68	745.97	478.57	-622.18	538.69	454.2	-623.67	547	325.06	-614.02	307.74	444.28	-540.92	258.68	421.4	-601.47	232	426.61	-555.41	332.8	437.03	-539.33	111.67	398.58	-527.31	128.47	314.08	-589.6	64.666	346.25	-574.02	36.798	315.61	-575.51	33.944	380.14	-400.8	62.43	421.05	-381.43	84.688	304.68	-321.41	115.12	350.67	-803.26	706.46	187.54	-769.71	615.34	240.71	-840.09	624.69	205.39	-737.07	702.35	217.12	-888.79	535.87	225.41	-851.85	533.67	343.07	-1043	359.48	245.36	-1019.4	274.27	249.54	-1084.4	301.87	265.52	-982.48	333.2	234.84	-1116.7	156.98	272.51	-1098.5	175.2	358.17	-1207.4	153.78	313.73	-1216.2	129.6	347.08	-1209.7	126.31	285.58	-1049.8	45.219	265.43	-1042.1	49.595	385.62	-967.82	41.074	339.69	-840.11	1530.3	336.78	-893.9	1256.6	330.57
159	0.65833	-644.82	1272.2	348.72	-784.02	1473.9	514.61	-776.18	1479.9	162.45	-748.93	1796.5	341.66	-692.64	1038.6	470.35	-682.02	1031.6	216.78	NaN	NaN	NaN	-888.04	1060.1	293.26	-743.34	961.29	518.57	-792.51	961.8	162.53	-784.38	1110.4	500.3	-752.85	1105.8	179.79	-903.31	1023.1	335.89	-680.14	719.16	496.3	-606.7	658.3	456.13	-671.88	633.85	468.63	-613.74	746.17	478.24	-616.78	538.75	454.29	-619.53	546.76	325.07	-610.15	307.67	444.61	-537.57	258.13	421.18	-598.24	231.85	426.99	-551.4	332.36	436.84	-537.45	111.2	398.62	-525.69	127.74	313.95	-588.62	65.29	346.37	-573.66	37.075	315.71	-575.04	34.332	380.24	-399.74	60.132	420.47	-380.31	81.865	304.05	-319.6	111.43	349.77	-795.95	706.29	187.04	-761.77	615.18	239.78	-832.26	624.25	204.67	-729.6	702.45	216.36	-880.78	535.45	224.54	-843.08	532.75	341.98	-1036.9	361.09	244.67	-1014.5	275.57	248.44	-1079.1	303.97	264.86	-976.77	334.05	233.76	-1112.9	159.22	271.5	-1094.5	177.32	357.09	-1203.3	158.18	312.87	-1212.7	134.61	346.49	-1206.5	130.71	284.97	-1049	45.368	265.34	-1041.3	50.369	385.42	-967.6	40.849	339.71	-834.52	1530.5	337.11	-888.04	1256.8	330.85
160	0.6625	-639	1272.7	348.91	-778.29	1474.2	514.91	-770.48	1480.2	162.73	-743.39	1796.9	341.93	-686.47	1039	470.49	-676.04	1032	216.99	NaN	NaN	NaN	-881.92	1060.4	293.46	-736.86	961.74	518.7	-786.35	961.92	162.7	-778.25	1110.8	500.49	-746.85	1106.2	179.97	-897.14	1023.4	336.13	-674.1	719.54	496.39	-601.04	658.56	456.18	-666.22	634.17	468.85	-607.79	746.44	477.96	-611.38	538.86	454.44	-615.4	546.56	325.13	-606.36	307.64	444.99	-534.3	257.61	421.04	-595.07	231.74	427.43	-547.47	331.97	436.73	-535.64	110.77	398.71	-524.12	127.09	313.9	-587.67	65.904	346.53	-573.3	37.387	315.83	-574.58	34.712	380.36	-398.76	57.912	420	-379.23	79.178	303.52	-317.88	107.85	349.02	-788.49	706.1	186.51	-753.62	615.02	238.79	-824.24	623.78	203.91	-721.98	702.56	215.57	-872.54	535	223.6	-834.06	531.77	340.82	-1030.6	362.72	243.91	-1009.4	276.91	247.26	-1073.5	306.1	264.12	-970.83	334.92	232.6	-1108.9	161.51	270.4	-1090.3	179.49	355.95	-1198.9	162.73	311.89	-1208.9	139.83	345.78	-1203	135.29	284.24	-1048.2	45.576	265.22	-1040.4	51.232	385.18	-967.37	40.602	339.73	-828.93	1530.8	337.44	-882.18	1257	331.13
161	0.66667	-633.19	1273.2	349.09	-772.54	1474.5	515.21	-764.8	1480.5	162.99	-737.85	1797.2	342.19	-680.32	1039.6	470.63	-670.07	1032.4	217.2	NaN	NaN	NaN	-875.82	1060.6	293.65	-730.44	962.24	518.85	-780.18	962.04	162.89	-772.13	1111.2	500.67	-740.88	1106.6	180.16	-890.98	1023.7	336.37	-668.09	719.99	496.52	-595.37	658.9	456.29	-660.56	634.55	469.12	-601.84	746.79	477.73	-605.99	539.01	454.64	-611.27	546.4	325.25	-602.64	307.63	445.42	-531.1	257.14	420.98	-591.98	231.68	427.92	-543.62	331.61	436.69	-533.91	110.39	398.84	-522.62	126.5	313.9	-586.77	66.503	346.7	-572.93	37.726	315.96	-574.13	35.08	380.49	-397.87	55.78	419.63	-378.21	76.629	303.09	-316.26	104.4	348.39	-780.88	705.88	185.95	-745.28	614.85	237.76	-816.03	623.28	203.11	-714.21	702.69	214.75	-864.07	534.51	222.61	-824.78	530.73	339.58	-1024	364.37	243.08	-1004	278.27	245.99	-1067.6	308.27	263.3	-964.64	335.81	231.37	-1104.7	163.87	269.2	-1085.8	181.73	354.72	-1194.1	167.44	310.77	-1204.8	145.24	344.93	-1199.1	140.04	283.37	-1047.3	45.856	265.06	-1039.4	52.197	384.89	-967.1	40.331	339.74	-823.34	1531.1	337.77	-876.34	1257.3	331.41
162	0.67083	-627.38	1273.7	349.25	-766.79	1474.9	515.5	-759.14	1480.9	163.26	-732.31	1797.6	342.46	-674.19	1040.1	470.76	-664.14	1032.9	217.41	NaN	NaN	NaN	-869.76	1060.9	293.84	-724.09	962.82	519.02	-774.02	962.15	163.07	-766.02	1111.7	500.86	-734.94	1107	180.35	-884.86	1024	336.62	-662.13	720.5	496.71	-589.71	659.31	456.45	-654.89	634.97	469.46	-595.89	747.2	477.56	-600.63	539.19	454.89	-607.11	546.29	325.42	-599.01	307.65	445.89	-527.99	256.7	420.98	-588.97	231.65	428.44	-539.85	331.27	436.73	-532.26	110.04	399	-521.18	125.97	313.94	-585.9	67.08	346.89	-572.56	38.082	316.09	-573.71	35.434	380.63	-397.05	53.749	419.34	-377.24	74.22	302.74	-314.73	101.08	347.87	-773.14	705.64	185.36	-736.74	614.68	236.68	-807.63	622.73	202.28	-706.3	702.83	213.9	-855.37	533.98	221.57	-815.27	529.64	338.28	-1017.1	366.04	242.18	-998.4	279.67	244.64	-1061.5	310.46	262.41	-958.19	336.71	230.07	-1100.3	166.28	267.9	-1081.1	184.02	353.42	-1189.1	172.29	309.51	-1200.3	150.85	343.91	-1195	144.96	282.35	-1046.3	46.224	264.86	-1038.4	53.278	384.56	-966.8	40.035	339.74	-817.76	1531.4	338.09	-870.51	1257.5	331.7
